<?xml version="1.0" encoding="UTF-8"?>
<!DOCTYPE svg PUBLIC "-//W3C//DTD SVG 1.1//EN" "http://www.w3.org/Graphics/SVG/1.1/DTD/svg11.dtd">
<!-- Creator: CorelDRAW 2020 (64-Bit) -->
<svg xmlns="http://www.w3.org/2000/svg" xml:space="preserve" width="300px" height="210px" version="1.1" style="shape-rendering:geometricPrecision; text-rendering:geometricPrecision; image-rendering:optimizeQuality; fill-rule:evenodd; clip-rule:evenodd"
viewBox="0 0 287996.4 201597.5"
 xmlns:xlink="http://www.w3.org/1999/xlink"
 xmlns:xodm="http://www.corel.com/coreldraw/odm/2003">
 <defs>
  <style type="text/css">
   <![CDATA[
    .fil0 {fill:none}
    .fil1 {fill:#2196f5;fill-rule:nonzero}
    .fil2 {fill:#ff693b;fill-rule:nonzero}
   ]]>
  </style>
 </defs>
 <g id="Layer_x0020_1">
  <metadata id="CorelCorpID_0Corel-Layer"/>
  <g id="_2067115363504">
   <rect class="fil0" x="0.1" y="-0.1" width="287996.4" height="201597.5"/>
   <path class="fil1" d="M41156.6 138861.9c0,1590.4 -1289.5,2879.9 -2879.9,2879.9 -1590.4,0 -2880,-1289.5 -2880,-2879.9l0 -16575.7c0,-1590.4 1289.6,-2880 2880,-2880l24837.2 0c1590.4,0 2880,1289.6 2880,2880l0 29868.1c0,1590.4 -1289.6,2880 -2880,2880l-24837.2 0c-1590.4,0 -2880,-1289.6 -2880,-2880 0,-1590.4 1289.6,-2880 2880,-2880l21957.2 0 0 -24108.1 -19077.3 0 0 13695.7z"/>
   <path class="fil1" d="M53575.6 168909.5c0,1590.4 -1289.5,2880 -2879.9,2880 -1590.4,0 -2880,-1289.6 -2880,-2880l0 -16755.2c0,-1590.4 1289.6,-2880 2880,-2880 1590.4,0 2879.9,1289.6 2879.9,2880l0 16755.2z"/>
   <path class="fil1" d="M53564.3 122308.9c-12.5,1584 -1307.3,2858.4 -2891.3,2845.9 -1584,-12.4 -2858.4,-1307.3 -2845.9,-2891.3l328.8 -41358.8c12.4,-1584 1307.3,-2858.4 2891.3,-2846 1583.9,12.5 2858.4,1307.4 2845.9,2891.3l-328.8 41358.9z"/>
   <path class="fil1" d="M153536.8 127583.1c0,-1590.4 1289.6,-2879.9 2880,-2879.9 1590.4,0 2880,1289.5 2880,2879.9l0 11196c0,1590.4 -1289.6,2880 -2880,2880l-24837.2 0c-1590.4,0 -2880,-1289.6 -2880,-2880l0 -43787.5c0,-1590.4 1289.6,-2880 2880,-2880l24837.2 0c1590.4,0 2880,1289.6 2880,2880l0 17991c0,1590.4 -1289.6,2880 -2880,2880 -1590.4,0 -2880,-1289.6 -2880,-2880l0 -15111.1 -19077.3 0 0 38027.6 19077.3 0 0 -8316z"/>
   <path class="fil1" d="M146878.1 144746.9c0,1590.4 -1289.5,2880 -2879.9,2880 -1590.4,0 -2880,-1289.6 -2880,-2880l0 -5967.8c0,-1590.4 1289.6,-2880 2880,-2880 1590.4,0 2879.9,1289.6 2879.9,2880l0 5967.8z"/>
   <path class="fil1" d="M146878.1 94991.6c0,1590.4 -1289.5,2879.9 -2879.9,2879.9 -1590.4,0 -2880,-1289.5 -2880,-2879.9l0 -38141.8c0,-1590.4 1289.6,-2880 2880,-2880 1590.4,0 2879.9,1289.6 2879.9,2880l0 38141.8z"/>
   <path class="fil1" d="M178231.2 72131.8c-1590.4,0 -2880,-1289.6 -2880,-2880 0,-1590.4 1289.6,-2880 2880,-2880l24837.2 0c1590.4,0 2880,1289.6 2880,2880l0 51179.1c0,1590.4 -1289.6,2879.9 -2880,2879.9l-24837.2 0c-1590.4,0 -2880,-1289.5 -2880,-2879.9l0 -39894c0,-1590.4 1289.6,-2879.9 2880,-2879.9 1590.4,0 2880,1289.5 2880,2879.9l0 37014 19077.3 0 0 -45419.1 -21957.3 0z"/>
   <path class="fil1" d="M193530.2 132665.4c0,1590.4 -1289.6,2880 -2880,2880 -1590.4,0 -2880,-1289.6 -2880,-2880l0 -12234.5c0,-1590.4 1289.6,-2880 2880,-2880 1590.4,0 2880,1289.6 2880,2880l0 12234.5z"/>
   <path class="fil1" d="M193530.2 66146.2c0,1590.4 -1289.6,2880 -2880,2880 -1590.4,0 -2880,-1289.6 -2880,-2880l0 -21377.9c0,-1590.4 1289.6,-2879.9 2880,-2879.9 1590.4,0 2880,1289.5 2880,2879.9l0 21377.9z"/>
   <path class="fil2" d="M250772.3 117841.5c0,1590.4 -1289.6,2880 -2880,2880 -1590.4,0 -2880,-1289.6 -2880,-2880l0 -21393.7 -19077.3 0 0 53297.5 19077.3 0 0 -12704c0,-1590.4 1289.6,-2880 2880,-2880 1590.4,0 2880,1289.6 2880,2880l0 15583.9c0,1590.4 -1289.6,2880 -2880,2880l-24837.2 0c-1590.4,0 -2880,-1289.6 -2880,-2880l0 -59057.4c0,-1590.4 1289.6,-2879.9 2880,-2879.9l24837.2 0c1590.4,0 2880,1289.5 2880,2879.9l0 24273.7z"/>
   <path class="fil2" d="M238353.3 188157.6c0,1590.4 -1289.6,2880 -2880,2880 -1590.4,0 -2879.9,-1289.6 -2879.9,-2880l0 -35532.8c0,-1590.4 1289.5,-2879.9 2879.9,-2879.9 1590.4,0 2880,1289.5 2880,2879.9l0 35532.8z"/>
   <path class="fil2" d="M238353.3 93567.5c0,1590.4 -1289.6,2879.9 -2880,2879.9 -1590.4,0 -2879.9,-1289.5 -2879.9,-2879.9l0 -26430.7c0,-1590.4 1289.5,-2880 2879.9,-2880 1590.4,0 2880,1289.6 2880,2880l0 26430.7z"/>
   <path class="fil1" d="M106885.6 127513.2c0,-1590.4 1289.5,-2879.9 2879.9,-2879.9 1590.5,0 2880,1289.5 2880,2879.9l0 11196c0,1590.4 -1289.5,2879.9 -2880,2879.9l-24837.2 0c-1590.4,0 -2879.9,-1289.5 -2879.9,-2879.9l0 -60537.1c0,-1590.4 1289.5,-2879.9 2879.9,-2879.9l24837.2 0c1590.5,0 2880,1289.5 2880,2879.9l0 34740.6c0,1590.4 -1289.5,2880 -2880,2880 -1590.4,0 -2879.9,-1289.6 -2879.9,-2880l0 -31860.6 -19077.3 0 0 54777.1 19077.3 0 0 -8316z"/>
   <path class="fil1" d="M100227.3 156828c0,1590.4 -1289.6,2880 -2880,2880 -1590.4,0 -2880,-1289.6 -2880,-2880l0 -18118.8c0,-1590.4 1289.6,-2880 2880,-2880 1590.4,0 2880,1289.6 2880,2880l0 18118.8z"/>
   <path class="fil1" d="M100227.7 78172.1c0,1590.4 -1289.6,2880 -2880,2880 -1590.4,0 -2880,-1289.6 -2880,-2880l0 -9241.2c0,-1590.4 1289.6,-2880 2880,-2880 1590.4,0 2880,1289.6 2880,2880l0 9241.2z"/>
   <path class="fil1" d="M248612.3 130220.1c-1534.5,397.6 -3101.1,-524.2 -3498.7,-2058.7 -397.6,-1534.5 524.3,-3101.1 2058.7,-3498.7l26664.6 -6905.1c1534.5,-397.6 3101.1,524.2 3498.7,2058.7 397.6,1534.5 -524.2,3101.1 -2058.7,3498.7l-26664.6 6905.1z"/>
   <path class="fil1" d="M14159.8 190936.3c-1534.4,397.6 -3101,-524.2 -3498.6,-2058.7 -397.6,-1534.4 524.2,-3101 2058.6,-3498.6l198095.8 -51300.8c1534.5,-397.6 3101.1,524.2 3498.7,2058.7 397.6,1534.4 -524.2,3101 -2058.7,3498.6l-198095.8 51300.8z"/>
   <path class="fil1" d="M14159.8 83839.4c-1534.4,397.6 -3101,-524.2 -3498.6,-2058.6 -397.6,-1534.5 524.2,-3101.1 2058.6,-3498.7l261117.1 -67621.3c1534.5,-397.6 3101.1,524.2 3498.7,2058.7 397.6,1534.4 -524.2,3101 -2058.7,3498.6l-261117.1 67621.3z"/>
  </g>
 </g>
</svg>
