<svg width="238" height="238" viewBox="0 0 238 238" fill="none" xmlns="http://www.w3.org/2000/svg">
<g clip-path="url(#clip0)">
<rect x="81.9775" y="36.1406" width="74.9259" height="167.481" fill="white"/>
<path d="M230.243 105.778C223.015 105.778 216.668 100.93 214.817 93.9659L214.641 93.1726C212.702 85.9444 215.875 78.2756 222.398 74.5733C225.836 72.6341 226.982 68.2267 225.042 64.7889L219.048 54.3874C217.021 50.9496 212.614 49.7156 209.176 51.743C202.653 55.5333 194.455 54.3874 189.166 49.0985L188.99 48.9222C183.701 43.6333 182.555 35.4356 186.345 28.9126C188.373 25.4748 187.139 20.9793 183.701 19.04L173.74 13.2222C170.038 11.1067 165.366 12.3407 163.162 16.043C159.548 22.3015 152.232 25.2985 145.357 23.4474L144.563 23.2711C137.247 21.3319 132.222 14.8089 132.222 7.22815C132.222 3.26148 128.961 0 124.994 0H113.447C109.216 0 105.69 3.43778 105.69 7.75704C105.69 14.9852 100.842 21.3319 93.878 23.0948L92.5558 23.4474C85.5921 25.2985 78.2758 22.2133 74.7499 16.043C72.6343 12.3407 67.8743 11.1067 64.1721 13.2222L54.2114 18.9519C50.7736 20.9793 49.5395 25.3867 51.5669 28.8244C55.3573 35.3474 54.2114 43.5452 48.9225 48.8341L48.7462 49.0104C43.4573 54.2993 35.2595 55.357 28.7365 51.6548C25.2988 49.6274 20.8032 50.8615 18.864 54.2993L12.8699 64.7007C10.9306 68.1385 12.0766 72.5459 15.5143 74.4852C22.0373 78.2756 25.2106 85.8563 23.2714 93.0844L23.1832 93.3489C21.244 100.665 14.721 105.69 7.14026 105.69C3.17359 105.69 -0.0878906 108.951 -0.0878906 112.918V124.465C-0.0878906 128.696 3.34989 132.222 7.66915 132.222C14.8973 132.222 21.244 137.07 23.0069 144.034L23.1832 144.827C25.1225 152.056 21.9491 159.724 15.4262 163.427C11.9884 165.366 10.8425 169.773 12.7817 173.211L18.7758 183.613C20.8032 187.05 25.2106 188.284 28.6484 186.257C35.1714 182.467 43.3691 183.613 48.658 188.901L48.8343 189.078C54.1232 194.367 55.2691 202.564 51.4788 209.087C49.4514 212.525 50.6854 217.021 54.1232 218.96L64.5247 224.954C67.9625 226.893 72.3699 225.747 74.3091 222.31C78.0995 215.787 85.6803 212.613 92.9084 214.553L93.7017 214.729C100.665 216.58 105.514 222.927 105.514 230.067C105.514 234.298 108.951 237.824 113.271 237.824H124.289C128.52 237.824 132.046 234.386 132.046 230.067C132.046 222.839 136.894 216.492 143.858 214.729L144.651 214.553C151.88 212.613 159.548 215.787 163.251 222.31C165.19 225.747 169.597 226.893 173.035 224.954L183.437 218.96C186.874 216.933 188.108 212.525 186.081 209.087C182.291 202.564 183.437 194.367 188.725 189.078L188.902 188.901C194.191 183.613 202.388 182.467 208.911 186.257C212.349 188.284 216.845 187.05 218.784 183.613L224.778 173.211C226.717 169.773 225.571 165.366 222.134 163.427C215.611 159.636 212.437 152.056 214.377 144.827L214.553 144.034C216.404 137.07 222.751 132.222 229.891 132.222C234.122 132.222 237.648 128.784 237.648 124.465V113.447C238 109.216 234.562 105.778 230.243 105.778ZM152.056 99.1667H119V105.778H152.056V165.278H125.611V198.333H112.389V165.278H85.9447V138.833H119V132.222H85.9447V72.7222H112.389V39.6667H125.611V72.7222H152.056V99.1667Z" fill="#FFAE29"/>
<path d="M112.389 165.278H85.9443L112.389 191.723V165.278Z" fill="#E89318"/>
<path d="M119 138.834V132.223H85.9443L92.5554 138.834H119Z" fill="#E89318"/>
<path d="M222.486 163.427C215.963 159.637 212.789 152.056 214.729 144.828L214.905 144.034C215.875 140.332 218.166 137.247 221.163 135.131L125.611 39.667V72.7225H152.055V99.167H119V105.778H152.055V165.278H125.611V198.334H112.389L135.131 221.076C137.246 218.079 140.332 215.787 144.034 214.817L144.827 214.641C152.055 212.702 159.724 215.875 163.426 222.398C165.366 225.836 169.773 226.982 173.211 225.043L183.612 219.048C187.05 217.021 188.284 212.614 186.257 209.176C182.466 202.653 183.612 194.455 188.901 189.166L189.078 188.99C194.366 183.701 202.564 182.555 209.087 186.346C212.525 188.373 217.021 187.139 218.96 183.701L224.954 173.3C227.069 169.862 225.923 165.454 222.486 163.427Z" fill="#E89318"/>
<path d="M187.315 25.6514L181.497 27.3262L174.445 57.2966L183.26 66.1114L169.156 79.3336L223.544 133.721C225.571 132.751 227.951 132.222 230.331 132.222C234.562 132.222 238.088 128.785 238.088 124.465V113.447C238.088 109.216 234.65 105.69 230.331 105.69C223.103 105.69 216.756 100.842 214.993 93.878L214.817 93.0847C212.878 85.8566 216.051 78.1877 222.574 74.4854C226.012 72.5462 227.158 68.1388 225.218 64.701L219.224 54.2995C217.197 50.8617 212.79 49.6277 209.352 51.6551C202.829 55.4454 194.631 54.2995 189.342 49.0106L189.166 48.8343C183.877 43.5454 182.731 35.3477 186.521 28.8247C186.874 27.8551 187.227 26.7091 187.315 25.6514Z" fill="#E89318"/>
<path d="M220.988 45.1319C216.404 41.1653 209.264 39.226 199.656 39.226H195.072L195.513 33.7608H218.255L223.544 29.1771V14.0156H179.822L176.737 19.3927L173.476 57.7371H191.105C195.777 57.7371 199.127 58.266 200.978 59.4119C202.829 60.5578 203.799 62.2327 203.799 64.3482C203.799 65.7586 203.358 66.9927 202.565 68.0504C201.066 68.4912 199.303 68.7556 197.364 68.7556C194.014 68.7556 190.753 68.2267 187.403 67.2571C184.142 66.2875 181.057 64.8771 178.324 63.026L175.327 65.8467L168.716 79.7741C171.977 81.8016 175.768 83.3882 180.263 84.5341C184.759 85.6801 189.254 86.209 193.838 86.209C200.097 86.209 205.385 85.1512 209.617 83.1238C209.881 83.0356 210.057 82.8593 210.322 82.7712C211.82 82.3304 213.231 81.8016 214.465 81.1845C218.96 79.069 222.31 76.1601 224.425 72.6341C226.629 69.0201 227.687 65.1416 227.687 60.8223C227.951 54.3875 225.66 49.0986 220.988 45.1319Z" fill="#115EC7"/>
<path d="M218.343 33.7605L223.632 29.1768H195.953L195.601 33.7605H218.343Z" fill="#0D51AD"/>
<path d="M201.065 59.4119C202.917 60.5578 203.886 62.2326 203.886 64.3482C203.886 65.7586 203.445 66.9926 202.652 68.0504C203.71 67.6978 204.591 67.3452 205.473 66.8163C207.5 65.4941 208.47 63.7311 208.47 61.4393C208.47 59.1474 207.5 57.3845 205.561 56.2385C203.622 55.0926 200.184 54.4756 195.16 54.4756H176.56L173.651 57.7371H191.281C195.953 57.7371 199.214 58.266 201.065 59.4119Z" fill="#0D51AD"/>
<path d="M198.069 84.5338C193.22 84.5338 188.46 83.9167 183.7 82.7708C178.94 81.6249 174.886 79.9501 171.536 77.7463L171.624 77.6582L168.892 79.8619C172.153 81.8893 175.943 83.476 180.439 84.6219C184.935 85.7678 189.43 86.2967 194.014 86.2967C200.272 86.2967 205.561 85.2389 209.792 83.2115C210.057 83.1234 210.233 82.9471 210.498 82.8589C206.883 84.0049 202.74 84.5338 198.069 84.5338Z" fill="#0D51AD"/>
<path d="M220.987 45.1319C225.571 49.0986 227.863 54.3875 227.863 60.9104C227.863 65.2297 226.805 69.1082 224.601 72.7223C222.398 76.3364 219.048 79.1571 214.641 81.2727C210.145 83.3882 204.592 84.446 198.069 84.446C193.221 84.446 188.461 83.829 183.701 82.683C178.941 81.5371 174.886 79.8623 171.536 77.6586L178.5 62.9378C181.232 64.789 184.229 66.1993 187.579 67.1689C190.841 68.1386 194.19 68.6675 197.54 68.6675C200.889 68.6675 203.534 68.0504 205.561 66.7282C207.589 65.406 208.558 63.643 208.558 61.3512C208.558 59.0593 207.589 57.2964 205.649 56.1504C203.71 55.0045 200.272 54.3875 195.248 54.3875H176.649L180.087 14.0156H223.808V29.089H196.218L195.336 39.1378H199.92C209.352 39.226 216.404 41.1653 220.987 45.1319Z" fill="#2F80ED"/>
<path d="M208.558 61.3512C208.558 59.0593 207.589 57.2964 205.649 56.1504C208.682 57.5608 209.44 60.2053 209.44 61.3512C209.44 63.955 208.308 65.9895 206.043 67.4666C203.822 68.9149 200.989 69.549 197.54 69.549C194.098 69.549 190.665 69.0058 187.331 68.0147C184.242 67.1203 181.44 65.8586 178.864 64.2296L172.665 77.3338L171.536 77.6586L178.5 62.9378C178.746 63.1044 178.994 63.2673 179.244 63.4267C181.774 65.0391 184.531 66.2865 187.579 67.169L191.572 68.123C193.549 68.4798 195.544 68.6675 197.54 68.6675C200.889 68.6675 203.534 68.0504 205.561 66.7282C207.589 65.406 208.558 63.643 208.558 61.3512Z" fill="#66A7FE"/>
<path d="M180.896 14.8971L177.608 53.506L176.649 54.3875L180.087 14.0156L180.914 14.8971H180.896Z" fill="#66A7FE"/>
</g>
<defs>
<clipPath id="clip0">
<rect width="238" height="238" fill="white"/>
</clipPath>
</defs>
</svg>
